<svg width="24" height="24" viewBox="0 0 24 24" fill="none" xmlns="http://www.w3.org/2000/svg">
<path d="M18.6312 9.93344V11.1766" stroke="black" stroke-width="0.7" stroke-miterlimit="10" stroke-linecap="round" stroke-linejoin="round"/>
<path d="M18.6312 8.28886V8.91043" stroke="black" stroke-width="0.7" stroke-miterlimit="10" stroke-linecap="round" stroke-linejoin="round"/>
<path d="M5.57837 20.4918C4.29678 20.4918 3.25782 19.3366 3.25782 17.9116V8.6903" stroke="black" stroke-width="0.7" stroke-miterlimit="10" stroke-linecap="round" stroke-linejoin="round"/>
<path d="M10.1977 21.8903H5.17391C3.42106 21.8903 2 20.3103 2 18.3613V5.52898C2 3.58004 3.42106 2 5.17391 2H16.7151C18.468 2 19.889 3.58004 19.889 5.52898" stroke="black" stroke-width="0.7" stroke-miterlimit="10"/>
<path d="M10.8048 7.44715H19.6095" stroke="black" stroke-width="0.7" stroke-miterlimit="10" stroke-linecap="round" stroke-linejoin="round"/>
<path d="M5.61024 20.4986H14.415" stroke="black" stroke-width="0.7" stroke-miterlimit="10" stroke-linecap="round" stroke-linejoin="round"/>
<path d="M19.8848 5.54662L19.9169 11.2595" stroke="black" stroke-width="0.7" stroke-miterlimit="10" stroke-linecap="round" stroke-linejoin="round"/>
<path d="M9.96621 7.44715H7.17105" stroke="black" stroke-width="0.7" stroke-miterlimit="10" stroke-linecap="round" stroke-linejoin="round"/>
<path d="M4.93492 7.44715H2" stroke="black" stroke-width="0.7" stroke-miterlimit="10" stroke-linecap="round" stroke-linejoin="round"/>
<path d="M6.3325 7.44715H6.05299" stroke="black" stroke-width="0.7" stroke-miterlimit="10" stroke-linecap="round" stroke-linejoin="round"/>
<path d="M8.51888 5.43108C8.51888 5.37918 8.5295 5.34344 8.55075 5.32292C8.57199 5.30272 8.60386 5.29278 8.64634 5.29278C8.73132 5.29278 8.7738 5.32541 8.7738 5.39068C8.7738 5.50971 8.80874 5.60636 8.87862 5.68064C8.9485 5.75492 9.04605 5.7919 9.17127 5.7919C9.43821 5.7919 9.57182 5.63247 9.57182 5.31267V3.81841H9.17742C9.14891 3.81841 9.12739 3.80629 9.11202 3.78142C9.09692 3.75687 9.08938 3.72548 9.08938 3.68726C9.08938 3.60397 9.11873 3.56232 9.17742 3.56232H9.7113C9.74149 3.56232 9.76832 3.57133 9.79152 3.58936C9.81472 3.60738 9.82646 3.63225 9.82646 3.66364V5.31298C9.82646 5.56751 9.7672 5.75336 9.64897 5.87146C9.53073 5.98925 9.37448 6.04861 9.18022 6.04861C8.98204 6.04861 8.82216 5.99174 8.70085 5.87799C8.57954 5.76455 8.51888 5.61568 8.51888 5.43108Z" fill="black"/>
<path d="M10.3875 5.31298V3.66022C10.3875 3.62852 10.4 3.60459 10.4255 3.58749C10.4506 3.57071 10.4805 3.56232 10.5149 3.56232C10.5493 3.56232 10.5792 3.57071 10.6044 3.58749C10.6295 3.60459 10.6421 3.62852 10.6421 3.66022V5.31298C10.6421 5.63278 10.7777 5.79221 11.0488 5.79221C11.1802 5.79221 11.2813 5.75243 11.3521 5.67256C11.4228 5.59269 11.4583 5.47303 11.4583 5.31298V3.66022C11.4583 3.59495 11.5008 3.56232 11.5857 3.56232C11.6201 3.56232 11.65 3.57071 11.6752 3.58749C11.7006 3.60459 11.7132 3.62852 11.7132 3.66022V5.31298C11.7132 5.56751 11.6525 5.75336 11.5312 5.87146C11.4099 5.98925 11.2492 6.04861 11.0488 6.04861C10.8484 6.04861 10.6882 5.98925 10.568 5.87146C10.4475 5.75336 10.3875 5.56751 10.3875 5.31298Z" fill="black"/>
<path d="M12.3421 5.92709V3.66022C12.3421 3.62852 12.3547 3.60459 12.3798 3.58749C12.4053 3.57071 12.4349 3.56232 12.4693 3.56232C12.5036 3.56232 12.5336 3.57071 12.5587 3.58749C12.5841 3.60459 12.5967 3.62852 12.5967 3.66022V5.7717H13.4249C13.4512 5.7717 13.4716 5.78475 13.4856 5.81055C13.4998 5.83634 13.5068 5.86618 13.5068 5.90005C13.5068 5.93362 13.4996 5.96345 13.4856 5.98925C13.4713 6.01536 13.4512 6.0281 13.4249 6.0281H12.457C12.4268 6.0281 12.3997 6.01909 12.3767 6.00106C12.3535 5.98335 12.3421 5.95848 12.3421 5.92709Z" fill="black"/>
<mask id="path-14-inside-1_74:30" fill="white">
<path d="M7.54169 11.4864C7.54169 11.3963 7.58586 11.2897 7.67446 11.1663L8.49401 9.6643C8.56053 9.53314 8.64914 9.46726 8.75983 9.46726C8.92194 9.46726 9.00328 9.55366 9.00328 9.72583V18.1969C9.00328 18.3775 8.91076 18.4676 8.72656 18.4676C8.5418 18.4676 8.44984 18.3775 8.44984 18.1969V10.7235L7.98473 11.6101C7.94028 11.717 7.87404 11.7702 7.78543 11.7702C7.71891 11.7702 7.66189 11.7413 7.61381 11.6838C7.56545 11.6263 7.54169 11.5604 7.54169 11.4864Z"/>
</mask>
<path d="M7.54169 11.4864C7.54169 11.3963 7.58586 11.2897 7.67446 11.1663L8.49401 9.6643C8.56053 9.53314 8.64914 9.46726 8.75983 9.46726C8.92194 9.46726 9.00328 9.55366 9.00328 9.72583V18.1969C9.00328 18.3775 8.91076 18.4676 8.72656 18.4676C8.5418 18.4676 8.44984 18.3775 8.44984 18.1969V10.7235L7.98473 11.6101C7.94028 11.717 7.87404 11.7702 7.78543 11.7702C7.71891 11.7702 7.66189 11.7413 7.61381 11.6838C7.56545 11.6263 7.54169 11.5604 7.54169 11.4864Z" fill="black"/>
<path d="M7.67446 11.1663L8.48671 11.7496L8.52273 11.6995L8.5523 11.6453L7.67446 11.1663ZM8.49401 9.6643L9.37184 10.1433L9.37904 10.1301L9.38584 10.1167L8.49401 9.6643ZM8.44984 10.7235H9.44984L7.56429 10.2589L8.44984 10.7235ZM7.98473 11.6101L7.09917 11.1456L7.07845 11.1851L7.06134 11.2263L7.98473 11.6101ZM7.61381 11.6838L8.38096 11.0423L8.37912 11.0401L7.61381 11.6838ZM8.54169 11.4864C8.54169 11.604 8.51333 11.6863 8.49859 11.7219C8.48383 11.7575 8.47402 11.7673 8.48671 11.7496L6.86222 10.583C6.72664 10.7718 6.54169 11.0873 6.54169 11.4864H8.54169ZM8.5523 11.6453L9.37184 10.1433L7.61617 9.18533L6.79663 10.6874L8.5523 11.6453ZM9.38584 10.1167C9.37142 10.1451 9.32093 10.2346 9.20615 10.3197C9.0779 10.4149 8.91879 10.4673 8.75983 10.4673V8.46726C8.14537 8.46726 7.77279 8.87557 7.60218 9.21193L9.38584 10.1167ZM8.75983 10.4673C8.66989 10.4673 8.42407 10.4403 8.21427 10.2175C8.01507 10.0059 8.00328 9.78024 8.00328 9.72583H10.0033C10.0033 9.49925 9.95083 9.1443 9.67042 8.84648C9.37943 8.53741 9.01188 8.46726 8.75983 8.46726V10.4673ZM8.00328 9.72583V18.1969H10.0033V9.72583H8.00328ZM8.00328 18.1969C8.00328 18.1268 8.02277 17.8923 8.23509 17.6848C8.44315 17.4815 8.66988 17.4676 8.72656 17.4676V19.4676C8.96745 19.4676 9.33254 19.4087 9.63291 19.1152C9.93754 18.8175 10.0033 18.4476 10.0033 18.1969H8.00328ZM8.72656 17.4676C8.7822 17.4676 9.00971 17.4811 9.21837 17.6853C9.43103 17.8934 9.44984 18.1283 9.44984 18.1969H7.44984C7.44984 18.4461 7.51463 18.8163 7.81947 19.1147C8.12029 19.4091 8.48616 19.4676 8.72656 19.4676V17.4676ZM9.44984 18.1969V10.7235H7.44984V18.1969H9.44984ZM7.56429 10.2589L7.09917 11.1456L8.87028 12.0747L9.3354 11.188L7.56429 10.2589ZM7.06134 11.2263C7.08128 11.1783 7.13937 11.0598 7.27557 10.9505C7.42792 10.8282 7.61254 10.7702 7.78543 10.7702V12.7702C8.04693 12.7702 8.30898 12.6856 8.52771 12.51C8.7303 12.3474 8.84373 12.1489 8.90812 11.994L7.06134 11.2263ZM7.78543 10.7702C7.90284 10.7702 8.02688 10.7971 8.14297 10.8557C8.25562 10.9125 8.33285 10.9848 8.38095 11.0423L6.84667 12.3253C7.05564 12.5752 7.38016 12.7702 7.78543 12.7702V10.7702ZM8.37912 11.0401C8.42542 11.0952 8.46872 11.1653 8.49924 11.2491C8.52975 11.3328 8.54169 11.4144 8.54169 11.4864H6.54169C6.54169 11.7954 6.64824 12.0893 6.8485 12.3274L8.37912 11.0401Z" fill="black" mask="url(#path-14-inside-1_74:30)"/>
<mask id="path-16-inside-2_74:30" fill="white">
<path d="M10.4009 11.5728V9.73826C10.4009 9.67269 10.4285 9.61115 10.4839 9.55366C10.5392 9.49616 10.6002 9.46726 10.6664 9.46726H14.5978C14.6568 9.46726 14.716 9.49616 14.775 9.55366C14.834 9.61115 14.8636 9.67269 14.8636 9.73826V10.6986C14.8636 10.7726 14.8413 10.8462 14.7968 10.9202L11.3755 18.3324C11.3252 18.431 11.2604 18.4801 11.1813 18.4801C11.0941 18.4801 11.018 18.4536 10.9529 18.4002C10.8875 18.347 10.8551 18.2793 10.8551 18.1972C10.8551 18.1727 10.8696 18.1192 10.8992 18.0372L14.3099 10.6862V10.0584H10.9546V11.5728C10.9546 11.6465 10.9269 11.7102 10.8716 11.7637C10.8162 11.8171 10.7517 11.8435 10.6779 11.8435C10.6041 11.8435 10.5395 11.8171 10.4842 11.7637C10.4285 11.7105 10.4009 11.6465 10.4009 11.5728Z"/>
</mask>
<path d="M10.4009 11.5728V9.73826C10.4009 9.67269 10.4285 9.61115 10.4839 9.55366C10.5392 9.49616 10.6002 9.46726 10.6664 9.46726H14.5978C14.6568 9.46726 14.716 9.49616 14.775 9.55366C14.834 9.61115 14.8636 9.67269 14.8636 9.73826V10.6986C14.8636 10.7726 14.8413 10.8462 14.7968 10.9202L11.3755 18.3324C11.3252 18.431 11.2604 18.4801 11.1813 18.4801C11.0941 18.4801 11.018 18.4536 10.9529 18.4002C10.8875 18.347 10.8551 18.2793 10.8551 18.1972C10.8551 18.1727 10.8696 18.1192 10.8992 18.0372L14.3099 10.6862V10.0584H10.9546V11.5728C10.9546 11.6465 10.9269 11.7102 10.8716 11.7637C10.8162 11.8171 10.7517 11.8435 10.6779 11.8435C10.6041 11.8435 10.5395 11.8171 10.4842 11.7637C10.4285 11.7105 10.4009 11.6465 10.4009 11.5728Z" fill="black"/>
<path d="M14.7968 10.9202L13.9396 10.4052L13.9117 10.4517L13.8889 10.5011L14.7968 10.9202ZM11.3755 18.3324L12.2661 18.7872L12.2752 18.7696L12.2835 18.7515L11.3755 18.3324ZM10.9529 18.4002L11.5874 17.6272L11.5835 17.6241L10.9529 18.4002ZM10.8992 18.0372L9.99212 17.6163L9.97362 17.6562L9.95869 17.6975L10.8992 18.0372ZM14.3099 10.6862L15.217 11.107L15.3099 10.9068V10.6862H14.3099ZM14.3099 10.0584H15.3099V9.05837H14.3099V10.0584ZM10.9546 10.0584V9.05837H9.95459V10.0584H10.9546ZM10.4842 11.7637L11.1789 11.0444L11.175 11.0406L10.4842 11.7637ZM11.4009 11.5728V9.73826H9.40086V11.5728H11.4009ZM11.4009 9.73826C11.4009 9.98521 11.2871 10.1612 11.2043 10.2472L9.76342 8.86016C9.56995 9.06115 9.40086 9.36017 9.40086 9.73826H11.4009ZM11.2043 10.2472C11.1633 10.2898 11.0963 10.3466 10.9991 10.3927C10.8983 10.4404 10.7842 10.4673 10.6664 10.4673V8.46726C10.273 8.46726 9.96513 8.65061 9.76342 8.86016L11.2043 10.2472ZM10.6664 10.4673H14.5978V8.46726H10.6664V10.4673ZM14.5978 10.4673C14.3071 10.4673 14.1296 10.3211 14.077 10.2697L15.4731 8.83761C15.3024 8.67126 15.0064 8.46726 14.5978 8.46726V10.4673ZM14.077 10.2697C13.9963 10.1911 13.8636 10.0088 13.8636 9.73826H15.8636C15.8636 9.33661 15.6717 9.03124 15.4731 8.83761L14.077 10.2697ZM13.8636 9.73826V10.6986H15.8636V9.73826H13.8636ZM13.8636 10.6986C13.8636 10.5609 13.9075 10.4586 13.9396 10.4052L15.654 11.4352C15.775 11.2338 15.8636 10.9842 15.8636 10.6986H13.8636ZM13.8889 10.5011L10.4676 17.9133L12.2835 18.7515L15.7048 11.3393L13.8889 10.5011ZM10.485 17.8776C10.5051 17.8382 10.5623 17.7395 10.6845 17.6467C10.8211 17.543 10.9963 17.4801 11.1813 17.4801V19.4801C11.7795 19.4801 12.1218 19.0699 12.2661 18.7872L10.485 17.8776ZM11.1813 17.4801C11.2401 17.4801 11.3117 17.4892 11.3885 17.5161C11.4659 17.5431 11.533 17.5826 11.5873 17.6272L10.3185 19.1732C10.5708 19.3802 10.8737 19.4801 11.1813 19.4801V17.4801ZM11.5835 17.6241C11.6516 17.6794 11.7259 17.7623 11.7806 17.876C11.8355 17.9901 11.8551 18.1029 11.8551 18.1972H9.85508C9.85508 18.5867 10.0281 18.9372 10.3223 19.1763L11.5835 17.6241ZM11.8551 18.1972C11.8551 18.2415 11.8519 18.2772 11.8493 18.3006C11.8465 18.3248 11.8432 18.3443 11.8407 18.3575C11.8359 18.3831 11.8314 18.3997 11.8303 18.4039C11.8281 18.4118 11.8297 18.4047 11.8398 18.3768L9.95869 17.6975C9.93912 17.7517 9.91867 17.8124 9.90182 17.8737C9.89237 17.9081 9.85508 18.0398 9.85508 18.1972H11.8551ZM11.8064 18.4581L15.217 11.107L13.4028 10.2653L9.99212 17.6163L11.8064 18.4581ZM15.3099 10.6862V10.0584H13.3099V10.6862H15.3099ZM14.3099 9.05837H10.9546V11.0584H14.3099V9.05837ZM9.95459 10.0584V11.5728H11.9546V10.0584H9.95459ZM9.95459 11.5728C9.95459 11.4811 9.97256 11.3787 10.0168 11.277C10.0606 11.1762 10.1202 11.0991 10.1768 11.0444L11.5663 12.4829C11.8074 12.25 11.9546 11.9304 11.9546 11.5728H9.95459ZM10.1768 11.0444C10.2312 10.9919 10.3058 10.9381 10.4011 10.8989C10.4969 10.8594 10.5925 10.8435 10.6779 10.8435V12.8435C11.02 12.8435 11.3312 12.71 11.5663 12.4829L10.1768 11.0444ZM10.6779 10.8435C10.7632 10.8435 10.8588 10.8594 10.9547 10.8989C11.05 10.9381 11.1246 10.9919 11.1789 11.0444L9.78943 12.4829C10.0246 12.71 10.3357 12.8435 10.6779 12.8435V10.8435ZM11.175 11.0406C11.2338 11.0968 11.2943 11.1752 11.3385 11.2767C11.383 11.3788 11.4009 11.4813 11.4009 11.5728H9.40086C9.40086 11.9291 9.5472 12.2515 9.79335 12.4867L11.175 11.0406Z" fill="black" mask="url(#path-16-inside-2_74:30)"/>
<path d="M20.2339 12.3198C21.9044 13.0967 23 14.9277 23 16.9685C23 18.3573 22.4979 19.6164 21.6876 20.5263C20.8773 21.4361 19.7575 22 18.5192 22C17.2824 22 16.1625 21.4361 15.3508 20.5263C14.5406 19.6148 14.0384 18.3573 14.0384 16.9685C14.0384 14.9437 15.1597 13.055 16.8273 12.2861C17.8616 11.812 19.2068 11.8408 20.2339 12.3198ZM17.8302 16.8339C17.8858 16.765 17.9543 16.7058 18.0285 16.6609V14.4727C18.0285 14.2501 18.1897 14.069 18.388 14.069C18.5863 14.069 18.7489 14.2501 18.7489 14.4727V16.6609C18.8801 16.741 18.9885 16.8611 19.0584 17.0085H20.4508C20.6505 17.0085 20.8102 17.1895 20.8102 17.4122C20.8102 17.6349 20.649 17.8159 20.4508 17.8159H19.0584C18.9301 18.085 18.679 18.2676 18.388 18.2676C18.1597 18.2676 17.9557 18.1539 17.8159 17.9761C17.5577 17.6445 17.5705 17.1495 17.8302 16.8339ZM21.1797 14.061C19.3238 11.977 16.1939 12.5665 15.1083 15.1904C14.8858 15.7302 14.7602 16.3325 14.7602 16.9669C14.7602 18.133 15.1811 19.1887 15.8615 19.9528C16.542 20.7169 17.4821 21.1894 18.5206 21.1894C19.5592 21.1894 20.4993 20.7153 21.1797 19.9528C21.8602 19.1887 22.281 18.133 22.281 16.9669C22.281 16.3053 22.1455 15.6789 21.9044 15.1215C21.7204 14.7002 21.475 14.3926 21.1797 14.061Z" fill="black"/>
<path d="M7.21052 21.8857H16.0153" stroke="black" stroke-width="0.7" stroke-miterlimit="10" stroke-linecap="round" stroke-linejoin="round"/>
</svg>
